<mxfile host="Electron" modified="2025-03-12T21:48:48.275Z" agent="Mozilla/5.0 (Windows NT 10.0; Win64; x64) AppleWebKit/537.36 (KHTML, like Gecko) draw.io/22.1.21 Chrome/120.0.6099.109 Electron/28.1.0 Safari/537.36" etag="XuXPelEDmYML0r3s4F6f" version="22.1.21" type="device">
  <diagram id="prtHgNgQTEPvFCAcTncT" name="Page-1">
    <mxGraphModel dx="1221" dy="728" grid="1" gridSize="10" guides="1" tooltips="1" connect="1" arrows="1" fold="1" page="1" pageScale="1" pageWidth="827" pageHeight="1169" math="0" shadow="0">
      <root>
        <mxCell id="0" />
        <mxCell id="1" parent="0" />
        <mxCell id="Q23qGx_tLZqSUvxQ0TY_-2" value="" style="rounded=0;whiteSpace=wrap;html=1;fillColor=none;" vertex="1" parent="1">
          <mxGeometry x="70" y="410" width="640" height="290" as="geometry" />
        </mxCell>
        <mxCell id="Q23qGx_tLZqSUvxQ0TY_-3" value="&amp;lt;navbar-component&amp;gt;" style="rounded=0;whiteSpace=wrap;html=1;fillColor=none;strokeColor=#ED0000;strokeWidth=2;" vertex="1" parent="1">
          <mxGeometry x="80" y="420" width="620" height="60" as="geometry" />
        </mxCell>
        <mxCell id="Q23qGx_tLZqSUvxQ0TY_-5" value="&amp;lt;router-outlet&amp;gt;" style="rounded=0;whiteSpace=wrap;html=1;fillColor=none;strokeColor=#FFFF00;strokeWidth=2;" vertex="1" parent="1">
          <mxGeometry x="80" y="500" width="620" height="180" as="geometry" />
        </mxCell>
      </root>
    </mxGraphModel>
  </diagram>
</mxfile>
